<svg viewBox="0 0 100 50" x="0px" xml:space="preserve" xmlns="http://www.w3.org/2000/svg" y="0px">
	<path d="M89.0209961,28.0634766h-1.222168V17.0410156C87.7988281,13.1582031,84.6884766,10,80.8657227,10h-5.9399414  c-3.8227539,0-6.9331055,3.1582031-6.9331055,7.0410156v11.0224609h-1.222168c-0.5522461,0-1,0.4472656-1,1v3.9697266h-3.6450195  v-3.9697266c0-0.5527344-0.4477539-1-1-1h-1.222168V17.0410156C59.9033203,13.1582031,56.7929688,10,52.9697266,10h-5.9394531  c-3.8232422,0-6.9335938,3.1582031-6.9335938,7.0410156v11.0224609h-1.222168c-0.5522461,0-1,0.4472656-1,1v3.9697266h-3.6450195  v-3.9697266c0-0.5527344-0.4477539-1-1-1h-1.222168V17.0410156C32.0073242,13.1582031,28.8969727,10,25.0742188,10h-5.9399414  c-3.8227539,0-6.9331055,3.1582031-6.9331055,7.0410156v11.0224609h-1.222168c-0.5522461,0-1,0.4472656-1,1v6.7119141  c0,1.7792969,1.4477539,3.2275391,3.2270508,3.2275391h7.8979492v6.1640625h-10.125c-0.5522461,0-1,0.4472656-1,1s0.4477539,1,1,1  h77.9980469c0.5522461,0,1-0.4472656,1-1s-0.4477539-1-1-1H78.8959961v-6.1640625h7.8979492  c1.7792969,0,3.2270508-1.4482422,3.2270508-3.2275391v-6.7119141  C90.0209961,28.5107422,89.5732422,28.0634766,89.0209961,28.0634766z M69.9926758,17.0410156  C69.9926758,14.2617188,72.2055664,12,74.9257812,12h5.9399414c2.7202148,0,4.9331055,2.2617188,4.9331055,5.0410156v11.0224609  H69.9926758V17.0410156z M42.0966797,17.0410156C42.0966797,14.2617188,44.3100586,12,47.0302734,12h5.9394531  c2.7202148,0,4.9335938,2.2617188,4.9335938,5.0410156v11.0224609H42.0966797V17.0410156z M39.8745117,30.0634766h20.2509766  v5.7119141c0,0.6767578-0.5507812,1.2275391-1.2275391,1.2275391H41.1020508c-0.6767578,0-1.2275391-0.5507812-1.2275391-1.2275391  V30.0634766z M14.2011719,17.0410156C14.2011719,14.2617188,16.4140625,12,19.1342773,12h5.9399414  c2.7202148,0,4.9331055,2.2617188,4.9331055,5.0410156v11.0224609H14.2011719V17.0410156z M11.9790039,35.7753906v-5.7119141  h20.2504883v5.7119141c0,0.6767578-0.5507812,1.2275391-1.2275391,1.2275391H13.2060547  C12.5292969,37.0029297,11.9790039,36.4521484,11.9790039,35.7753906z M23.1040039,39.0029297h7.8979492  c1.7797852,0,3.2275391-1.4482422,3.2275391-3.2275391v-0.7421875h3.6450195v0.7421875  c0,1.7792969,1.4477539,3.2275391,3.2275391,3.2275391H49v6.1640625H23.1040039V39.0029297z M76.8959961,45.1669922H51v-6.1640625  h7.8979492c1.7797852,0,3.2275391-1.4482422,3.2275391-3.2275391v-0.7421875h3.6450195v0.7421875  c0,1.7792969,1.4477539,3.2275391,3.2275391,3.2275391h7.8979492V45.1669922z M88.0209961,35.7753906  c0,0.6767578-0.550293,1.2275391-1.2270508,1.2275391H68.9980469c-0.6767578,0-1.2275391-0.5507812-1.2275391-1.2275391v-5.7119141  h20.2504883V35.7753906z"/>
</svg>
