<svg xmlns="http://www.w3.org/2000/svg" x="0px" y="0px" viewBox="0 0 512 512" xml:space="preserve">
	<g>
		<g>
			<g>
				<g>
					<path d="M134.204,483c-9.889,0-19.846-1.821-29.596-5.414l-0.296-0.117C94,473.128,85.685,468.155,78.89,462.267l-0.82-0.796 c-2.159-2.158-3.176-5.188-2.786-8.306c0.307-2.455,1.458-4.789,3.241-6.573l0.366-0.341 c7.675-6.65,16.567-11.948,25.717-15.319c19.503-7.184,39.69-7.184,59.192,0c9.15,3.371,18.042,8.669,25.717,15.319l0.821,0.796 c3.976,3.977,3.772,10.652-0.455,14.88l-0.365,0.34c-6.794,5.889-15.11,10.861-25.421,15.202l-0.296,0.117 C154.05,481.179,144.093,483,134.204,483z M109.596,464.504c8.147,2.983,16.426,4.496,24.608,4.496s16.46-1.513,24.608-4.496 c7.273-3.073,13.325-6.45,18.374-10.261c-5.63-4.345-11.862-7.83-18.226-10.175c-8.196-3.019-16.525-4.55-24.756-4.55 s-16.56,1.531-24.757,4.55c-6.363,2.345-12.595,5.83-18.225,10.175C96.271,458.055,102.321,461.43,109.596,464.504z"/>
				</g>
				<g>
					<path d="M83.174,321.657L83.174,321.657c-1.372,0-2.745-0.277-4.009-0.805c-9.208-2.964-17.927-7.758-25.921-14.253 l-0.171-0.143c-7.608-6.596-13.841-13.947-19.053-22.476l-1.027-1.681v-0.508c-4.296-7.505-7.292-15.942-9.375-26.359 L23.56,255.1c-1.542-10.273-1.365-20.662,0.511-30.041l0.416-2.078l0.99-0.99c1.737-3.264,5.186-5.392,9.063-5.392 c0.879,0,1.761,0.109,2.622,0.324l0.723,0.223c9.565,3.524,18.313,8.478,26,14.724c7.824,6.357,14.26,13.755,19.676,22.617 l0.221,0.39c5.158,9.799,8.352,19.066,9.762,28.325c1.791,9.081,1.673,19.007-0.35,29.515v0.636l-0.209,0.836 C91.884,318.586,87.85,321.657,83.174,321.657z M62.158,295.804c5.618,4.551,11.63,8.08,17.918,10.522 c1.06-7.366,0.962-14.26-0.295-20.545l-0.058-0.335c-1.151-7.675-3.842-15.479-8.226-23.849 c-4.548-7.398-9.928-13.569-16.441-18.862c-5.387-4.376-11.404-8.007-17.937-10.825c-0.88,6.65-0.796,13.806,0.26,20.945 c1.912,9.486,4.642,16.917,8.587,23.374l1.027,1.68v0.41C51.209,284.879,56.185,290.613,62.158,295.804z"/>
				</g>
				<g>
					<path d="M99.645,407.875c0,0-0.001,0-0.002,0c-4.519,0-9.094-0.34-13.988-1.039l-0.101-0.016 c-9.894-1.562-19.66-5.148-28.252-10.377c-8.511-4.752-16.595-11.615-22.775-19.34c-6.213-7.647-11.167-16.395-14.69-25.959 l-0.432-1.172v-1.089c-0.698-5.144,2.709-10.151,8.019-11.479l0.326-0.073c5.24-1.048,10.476-1.558,16.007-1.558 c4.517,0,9.091,0.34,13.985,1.039l0.103,0.016c9.894,1.563,19.66,5.15,28.252,10.378c8.511,4.751,16.594,11.615,22.774,19.34 c6.213,7.646,11.167,16.395,14.69,25.959l0.432,1.172v1.09c0.697,5.144-2.71,10.15-8.019,11.479l-0.326,0.073 C110.408,407.366,105.174,407.875,99.645,407.875z M87.687,392.984c4.211,0.6,8.123,0.891,11.957,0.891h0.001 c3.146,0,6.171-0.196,9.154-0.599c-2.818-6.534-6.45-12.555-10.828-17.943c-5.133-6.416-11.799-12.069-18.802-15.96l-0.25-0.146 c-7.056-4.312-15.081-7.272-23.209-8.563c-7.67-1.09-14.496-1.182-21.112-0.291c2.818,6.534,6.449,12.554,10.828,17.943 c5.133,6.415,11.799,12.068,18.802,15.959l0.251,0.146C71.535,388.733,79.559,391.694,87.687,392.984z"/>
				</g>
				<g>
					<path d="M377.431,483c-9.889,0-19.847-1.821-29.596-5.414l-0.296-0.117c-10.312-4.34-18.627-9.313-25.422-15.202l-0.363-0.339 c-4.229-4.226-4.434-10.901-0.456-14.882l0.82-0.795c7.675-6.651,16.567-11.948,25.717-15.319 c19.501-7.183,39.688-7.185,59.191,0c9.149,3.371,18.042,8.668,25.718,15.319l0.367,0.342 c4.227,4.229,4.428,10.906,0.449,14.882l-0.816,0.792c-6.795,5.889-15.11,10.861-25.421,15.202l-0.296,0.117 C397.276,481.179,387.319,483,377.431,483z M352.823,464.504c8.147,2.983,16.426,4.496,24.607,4.496s16.46-1.513,24.608-4.496 c7.272-3.073,13.324-6.45,18.373-10.261c-5.63-4.345-11.862-7.83-18.225-10.175c-8.196-3.019-16.526-4.55-24.757-4.55 s-16.56,1.531-24.756,4.55c-6.363,2.345-12.596,5.83-18.226,10.175C339.499,458.055,345.55,461.431,352.823,464.504z"/>
				</g>
				<g>
					<path d="M428.532,321.657c-3.907,0-7.49-2.313-9.352-6.038l-0.738-1.478v-1.429c-1.748-9.194-1.879-19.323-0.376-29.344 c1.471-9.805,4.855-19.188,10.346-28.685c4.387-7.878,10.657-15.295,19.168-22.671l0.171-0.143 c7.687-6.246,16.435-11.199,26-14.724l0.723-0.223c0.861-0.215,1.744-0.324,2.625-0.324c4.155,0,7.934,2.394,9.862,6.248 l0.739,1.479v1.431c1.747,9.194,1.878,19.323,0.376,29.343c-1.397,9.309-4.568,18.282-9.435,26.702v0.5l-1.027,1.681 c-5.213,8.53-11.445,15.882-19.054,22.476l-0.17,0.143c-7.987,6.49-16.701,11.282-25.904,14.247 C431.218,321.385,429.891,321.657,428.532,321.657z M456.665,242.666c-7.229,6.278-12.479,12.452-16.045,18.871l-0.062,0.108 c-4.611,7.964-7.439,15.749-8.646,23.801c-1.066,7.107-1.17,14.234-0.317,20.866c6.275-2.442,12.275-5.967,17.882-10.509 c5.972-5.188,10.948-10.924,15.165-17.484v-0.41l1.027-1.681c4.468-7.312,7.349-15.119,8.562-23.206 c1.079-7.195,1.171-14.411,0.285-21.112C468.018,234.714,462.029,238.321,456.665,242.666z"/>
				</g>
				<g>
					<path d="M411.991,407.875c-5.529,0-10.764-0.509-16.004-1.557l-0.324-0.073c-5.311-1.327-8.719-6.335-8.021-11.479v-1.089 l0.432-1.171c3.522-9.564,8.477-18.313,14.724-26.001l0.143-0.17c7.376-8.512,14.793-14.783,22.671-19.17 c9.497-5.49,18.881-8.874,28.686-10.346c10.28-1.54,20.641-1.368,30.041,0.512l0.325,0.073c4.797,1.2,8.02,5.567,8.02,10.868 v2.904l-1.326,1.323c-2.988,8.737-7.635,17.021-13.829,24.645l-0.143,0.171c-6.879,7.936-14.847,14.547-23.052,19.127 c-8.593,5.229-18.358,8.816-28.252,10.378l-0.102,0.016C421.085,407.535,416.51,407.875,411.991,407.875z M402.836,393.276 c6.616,0.894,13.443,0.801,21.112-0.292c8.127-1.29,16.152-4.251,23.208-8.563l0.251-0.146 c6.808-3.782,13.487-9.329,19.324-16.045c4.543-5.608,8.067-11.608,10.51-17.884c-6.626-0.856-13.767-0.748-20.867,0.318 c-8.051,1.208-15.837,4.036-23.802,8.647l-0.107,0.061c-6.419,3.566-12.593,8.815-18.871,16.046 C409.246,380.786,405.638,386.777,402.836,393.276z"/>
				</g>
				<g>
					<path d="M98.923,232.705L98.923,232.705c-2.954,0-5.693-1.113-7.714-3.133l-0.341-0.366 c-6.65-7.674-11.948-16.567-15.319-25.717c-3.592-9.751-5.414-19.709-5.414-29.597s1.821-19.845,5.414-29.596 c3.372-9.151,8.669-18.044,15.32-25.717l0.793-0.818c1.919-1.918,4.543-3.019,7.201-3.019c3.202,0,6.122,1.573,7.888,4.177 c6.424,7.017,11.323,15.043,15.384,25.197l0.069,0.18c3.338,9.062,4.961,18.742,4.961,29.596s-1.623,20.535-4.961,29.596 l-0.117,0.296c-4.342,10.312-9.314,18.627-15.202,25.421l-1.285,1.309l-0.576,0.384 C103.274,232.063,101.108,232.705,98.923,232.705z M98.741,131.063c-4.29,5.589-7.733,11.766-10.057,18.072 c-3.02,8.196-4.55,16.525-4.55,24.756s1.531,16.561,4.55,24.756c2.345,6.363,5.831,12.596,10.175,18.225 c3.81-5.049,7.187-11.099,10.26-18.373c2.721-7.443,4.043-15.496,4.043-24.609c0-9.137-1.33-17.208-4.065-24.667 C106.213,142.033,102.875,136.165,98.741,131.063z"/>
				</g>
				<g>
					<path d="M412.973,232.705c-2.092,0-4.135-0.625-5.908-1.807l-0.574-0.383l-1.112-1.118c-6.52-6.985-11.731-15.702-15.492-25.908 c-3.593-9.75-5.414-19.708-5.414-29.597c0-9.871,1.815-19.811,5.395-29.544c3.184-9.07,8.16-17.454,15.21-25.621 c2.006-2.537,4.853-3.985,7.854-3.985c2.596,0,5.097,1.072,7.044,3.019l0.62,0.626c6.52,6.985,11.731,15.702,15.492,25.909 c3.593,9.75,5.414,19.708,5.414,29.596s-1.821,19.846-5.414,29.596c-3.371,9.149-8.669,18.042-15.319,25.717l-0.342,0.368 C418.404,231.592,415.757,232.705,412.973,232.705z M413.053,131.068c-4.52,5.8-7.804,11.708-9.992,17.96l-0.038,0.107 c-3.02,8.196-4.551,16.525-4.551,24.756s1.531,16.561,4.551,24.756c2.559,6.944,5.876,12.998,9.886,18.052 c4.283-5.584,7.722-11.755,10.042-18.053c3.02-8.195,4.551-16.524,4.551-24.756s-1.531-16.561-4.551-24.756 C420.389,142.184,417.068,136.125,413.053,131.068z"/>
				</g>
				<g>
					<path d="M360.219,148.733h-1.031l-0.571-0.095c-9.078-1.513-17.87-4.498-26.131-8.871l-0.156-0.085 c-7.927-4.458-14.957-10.458-20.898-17.834c-5.912-6.426-10.602-14.458-13.94-23.879c-3.516-9.081-4.99-18.106-4.509-27.585 c0.134-5.248,4.644-9.478,10.168-9.478h1.032L304.754,61c9.213,1.536,18.146,4.633,25.833,8.957 c8.145,4.582,15.53,10.598,21.359,17.399l0.15,0.182c6.529,8.161,11.05,15.941,13.817,23.784l0.04,0.116 c2.901,8.705,4.436,18.084,4.436,27.125C370.39,144.266,365.922,148.733,360.219,148.733z M339.116,127.436 c5.469,2.887,11.206,5.047,17.112,6.447c-0.413-6.052-1.615-12.179-3.536-17.959c-2.229-6.292-5.977-12.687-11.453-19.546 c-4.764-5.536-10.817-10.451-17.516-14.219c-5.047-2.839-10.782-5.036-16.795-6.451c0.213,5.854,1.419,11.55,3.65,17.29 l0.076,0.207c2.733,7.743,6.506,14.239,11.212,19.308l0.336,0.39C327.031,118.936,332.722,123.826,339.116,127.436z"/>
				</g>
				<g>
					<path d="M151.965,148.733h-1.002c-5.703,0-10.171-4.467-10.171-10.17c0-9.04,1.534-18.42,4.436-27.125l0.04-0.116 c2.768-7.842,7.288-15.622,13.817-23.784l0.151-0.182c5.829-6.801,13.214-12.817,21.359-17.399 c7.688-4.324,16.621-7.421,25.834-8.957L207,60.904h1.033c5.524,0,10.034,4.229,10.167,9.478 c0.481,9.479-0.994,18.506-4.509,27.585c-3.217,9.078-7.876,17.327-13.479,23.863c-6.65,7.673-13.628,13.502-21.359,17.851 l-0.156,0.085c-8.714,4.613-17.036,7.436-26.189,8.881L151.965,148.733z M158.49,115.924c-1.926,5.794-3.129,11.936-3.54,18 c5.81-1.336,11.348-3.442,17.116-6.488c6.273-3.542,12.012-8.366,17.542-14.746c4.485-5.233,8.269-11.981,10.918-19.486 l0.077-0.207c2.231-5.738,3.437-11.434,3.65-17.289c-6.013,1.414-11.748,3.611-16.795,6.45 c-6.698,3.768-12.752,8.683-17.517,14.218C164.466,103.237,160.719,109.632,158.49,115.924z"/>
				</g>
				<rect x="53.891" y="71.859" transform="matrix(0.7071 0.7071 -0.7071 0.7071 76.5975 -21.2015)" width="20" height="20"/>
				<rect x="82.175" y="71.859" transform="matrix(0.7071 0.7071 -0.7071 0.7071 84.8821 -41.2018)" width="20" height="20"/>
				<rect x="53.891" y="43.574" transform="matrix(0.7071 0.7071 -0.7071 0.7071 56.5973 -29.4861)" width="20" height="20"/>
				<rect x="82.175" y="43.574" transform="matrix(0.7071 0.7071 -0.7071 0.7071 64.8818 -49.4864)" width="20" height="20"/>
				<rect x="250.46" y="448.426" transform="matrix(0.7071 0.7071 -0.7071 0.7071 400.4257 -49.9079)" width="20" height="20.001"/>
				<rect x="278.744" y="448.426" transform="matrix(0.7071 0.7071 -0.7071 0.7071 408.7093 -69.9071)" width="20" height="20.001"/>
				<rect x="250.46" y="420.142" transform="matrix(0.7071 0.7071 -0.7071 0.7071 380.4265 -58.1915)" width="20" height="20.001"/>
				<rect x="278.744" y="420.142" transform="matrix(0.7071 0.7071 -0.7071 0.7071 388.71 -78.1907)" width="20" height="20.001"/>
				<g>
					<path d="M391.317,73c-12.131,0-22-9.869-22-22s9.869-22,22-22s22,9.869,22,22S403.448,73,391.317,73z M391.317,43 c-4.411,0-8,3.589-8,8s3.589,8,8,8s8-3.589,8-8S395.729,43,391.317,43z"/>
				</g>
				<g>
					<path d="M186.317,413c-12.131,0-22-9.869-22-22s9.869-22,22-22s22,9.869,22,22S198.448,413,186.317,413z M186.317,383 c-4.411,0-8,3.589-8,8s3.589,8,8,8s8-3.589,8-8S190.729,383,186.317,383z"/>
				</g>
				<g>
					<path d="M252.984,363c-1.509,0-2.997-0.488-4.228-1.42c-1.747-1.323-2.773-3.389-2.773-5.58v-75.348 c0-3.013,1.928-5.688,4.787-6.641l77.777-25.925c2.139-0.713,4.482-0.354,6.307,0.962c1.825,1.316,2.907,3.429,2.907,5.679 v79.398c0,3.136-2.086,5.89-5.104,6.738l-77.778,21.875C254.255,362.914,253.618,363,252.984,363z M259.984,285.697v61.063 l63.777-17.938v-64.384L259.984,285.697z"/>
				</g>
				<g>
					<path d="M252.985,287.654c-0.734,0-1.48-0.116-2.214-0.361l-32.813-10.938c-2.934-0.978-4.789-3.709-4.789-6.641 c0-0.733,0.116-1.479,0.361-2.214c1.223-3.667,5.188-5.651,8.854-4.427l32.813,10.938c2.934,0.978,4.789,3.709,4.788,6.641 c0,0.733-0.116,1.479-0.36,2.214C258.646,285.799,255.916,287.654,252.985,287.654z"/>
				</g>
				<g>
					<path d="M252.983,363c-0.634,0-1.271-0.086-1.895-0.262l-77.777-21.875c-3.019-0.849-5.105-3.603-5.105-6.738v-79.398 c0-2.25,1.082-4.363,2.907-5.679c1.824-1.316,4.172-1.674,6.306-0.962l77.777,25.925c2.858,0.953,4.787,3.628,4.787,6.641V356 c0,2.191-1.026,4.257-2.773,5.58C255.98,362.512,254.493,363,252.983,363z M182.207,328.822l63.777,17.938v-61.063 l-63.777-21.259V328.822z"/>
				</g>
				<g>
					<path d="M252.984,287.652c-0.748,0-1.495-0.12-2.213-0.359l-116.667-38.889c-2.858-0.953-4.787-3.627-4.787-6.641 s1.928-5.688,4.787-6.641l116.667-38.889c1.437-0.479,2.99-0.479,4.427,0l116.667,38.889c2.858,0.953,4.786,3.627,4.786,6.641 s-1.928,5.688-4.786,6.641l-116.667,38.889C254.479,287.532,253.731,287.652,252.984,287.652z M158.454,241.764l94.53,31.51 l94.531-31.51l-94.531-31.51L158.454,241.764z"/>
				</g>
				<g>
					<path d="M369.65,300.615c-3.866,0-7-3.134-7-7v-51.852c0-3.866,3.134-7,7-7s7,3.134,7,7v51.852 C376.65,297.481,373.517,300.615,369.65,300.615z"/>
				</g>
				<g>
					<g>
						<path d="M252.98,173c-1.84,0-3.64-0.75-4.95-2.05c-1.3-1.3-2.05-3.11-2.05-4.95c0-1.84,0.75-3.65,2.05-4.95 c1.31-1.3,3.11-2.05,4.95-2.05c1.85,0,3.65,0.75,4.959,2.05c1.301,1.3,2.04,3.11,2.04,4.95c0,1.84-0.739,3.65-2.04,4.95 C256.63,172.25,254.83,173,252.98,173z"/>
					</g>
					<g>
						<path d="M245.98,166c0-3.87,3.14-7,7-7l0,0c3.87,0,7,3.13,7,7l0,0c0,3.87-3.13,7-7,7l0,0C249.12,173,245.98,169.87,245.98,166z "/>
					</g>
					<g>
						<path d="M245.98,136c0-3.87,3.14-7,7-7l0,0c3.87,0,7,3.13,7,7l0,0c0,3.87-3.13,7-7,7l0,0C249.12,143,245.98,139.87,245.98,136z M245.98,106c0-3.86,3.14-7,7-7l0,0c3.87,0,7,3.14,7,7l0,0c0,3.87-3.13,7-7,7l0,0C249.12,113,245.98,109.87,245.98,106z M245.98,76c0-3.87,3.14-7,7-7l0,0c3.87,0,7,3.13,7,7l0,0c0,3.87-3.13,7-7,7l0,0C249.12,83,245.98,79.87,245.98,76z"/>
					</g>
					<g>
						<path d="M252.98,53c-1.84,0-3.64-0.75-4.95-2.05c-1.3-1.3-2.05-3.11-2.05-4.95c0-1.84,0.75-3.65,2.05-4.95 c1.31-1.3,3.11-2.05,4.95-2.05c1.85,0,3.65,0.75,4.959,2.05c1.301,1.3,2.04,3.11,2.04,4.95c0,1.84-0.739,3.65-2.04,4.95 C256.63,52.25,254.83,53,252.98,53z"/>
					</g>
				</g>
			</g>
		</g>
	</g>
</svg>
