<?xml version="1.0" encoding="UTF-8"?>
<svg height="630" version="1.1" viewBox="-9 0 762 630" width="762" xmlns="http://www.w3.org/2000/svg">
	<g transform="matrix(1.3 0 0 -1.3 0 788)">
		<g transform="scale(.1)">
			<ellipse cx="2858" cy="-3573" fill="#422744" rx="2858" ry="2337" stroke-width="0" transform="scale(1,-1)"/>
			<g fill-rule="evenodd">
				<path d="m1658 1182h-962c-216 249-389 537-509 850 63 80 138 126 218 126 99 0 189-69 259-185 86 322 278 546 500 546 303 0 549-416 549-930 0-146-20-284-55-407zm3791 662c-112-241-257-463-429-662h-885c-53 147-85 329-85 527 0 486 192 881 428 881 232 0 421-379 428-853 74 160 182 261 302 261 90 0 174-57 241-154" fill="#231821"/>
				<path d="m2858 2216c786 0 1427 641 1427 1427s-641 1427-1427 1427c-786 0-1427-641-1427-1427s641-1427 1427-1427" fill="#8c5a94"/>
				<path d="m4152 4246c85-183 133-387 133-603 0-117-14-232-41-341l-1765 166c303 321 356 803 130 1182l-83 139 122 62 1504-606" fill="#76487d"/>
				<path d="m1303 3219h3111v249h-3111v-249" fill="#a36ca9"/>
				<path d="m1419 1182h2877v2e3h-2877v-2e3" fill="#663f6b"/>
				<path d="m1419 3219h2877v-670c-808 655-1908 825-2877 444v226" fill="#543358"/>
				<path d="m3238 1182h814v1268h-814v-1268" fill="#a66fac"/>
				<path d="m3322 1182h646v1184h-646v-1184" fill="#231821"/>
				<path d="m3199 1182h39v1268h-39v-1268" fill="#8c5a94"/>
				<path d="m1563 1632h525v818h-525v-818" fill="#a66fac"/>
				<path d="m2e3 2378h-382v-675h382v675" fill="#231821"/>
				<path d="m2088 1632h25v818h-25v-818" fill="#8c5a94"/>
				<path d="m3883 1182h84v1184h-84v-1184" fill="#452a48"/>
				<path d="m1635 1703h80v675h-80v-675" fill="#452a48"/>
				<path d="m2201 1632h605v818h-605v-818" fill="#a66fac"/>
				<path d="m2724 2378h-440v-675h440v675" fill="#231821"/>
				<path d="m2806 1632h14v818h-14v-818" fill="#8c5a94"/>
				<path d="m2284 1703h46v675h-46v-675" fill="#452a48"/>
				<path d="m2255 4935 68-30c434-193 708-630 692-1104h1263l29 135c-368 639-1e3 1e3 -2e3 1134l-29-135" fill="#b47bba"/>
				<path d="m2285 5070 68-30c434-193 708-630 692-1104h1263c16 475-258 912-692 1104l-68 30h-1263" fill="#c887ca"/>
				<path d="m2608 5e3c306-224 498-579 512-964h1092c-18 407-265 774-641 941l-51 23h-912" fill="#663f6b"/>
				<path d="m2748 4900c224-221 360-522 372-844h1e3c-56 358-290 671-629 822l-51 23h-729" fill="#452a48"/>
				<path d="m3e3 3801 29 135h1263l-29-135h-1263" fill="#a36ca9"/>
				<path d="m4154 4221-304-166h-729c-11 282-116 547-292 757l793 433c134-258 398-766 532-1e3" fill="#a36ca9"/>
				<path d="m4e3 4118-115-63h-729c-11 282-116 547-292 757l202 110c41-231 165-441 351-591 168-134 373-208 584-214" fill="#76487d"/>
				<path d="m4652 4344-205-112c-241-132-583 42-764 389-180 347-131 735 111 867l205 112c165-317 488-939 653-1256" fill="#c887ca"/>
				<path d="m4e3 5601c241 132 583-42 764-389 180-347 131-735-111-867-241-132-583 42-764 389-180 347-131 735 111 867" fill="#dea6d8"/>
				<path d="m4059 5484c197 108 475-34 622-317 147-283 106-599-90-706-197-108-475 34-622 317-147 283-106 599 90 706" fill="#a36ca9"/>
				<path d="m4528 4435c-190-51-427 89-559 342-137 264-111 556 53 682 190 51 427-89 559-342 137-264 111-556-53-682" fill="#231821"/>
				<path d="m4e3 5144c51 19 117-55 147-164 30-110 12-214-39-233-51-19-117 55-147 164s-12 214 39 233" fill="#56375a"/>
				<path d="m4e3 5358c36-5.8 57-51 47-102-9.4-50-46-86-81-80-36 5.9-57 51-47 102 9.4 50 46 86 81 80" fill="#56375a"/>
				<path d="m832 3874 5.4-63 63-5.4-63-5.4-5.4-63-5.4 63-63 5.4 63 5.4zm-577-505 5.4-63 63-5.4-63-5.4-5.4-63-5.4 63-63 5.4 63 5.4zm997 1213 5.4-63 63-5.4-63-5.4-5.4-63-5.4 63-63 5.4 63 5.4zm4e3 -1528 18-206 206-18-206-18-18-206-18 206-206 18 206 18zm-369 852 7-80 80-7-80-7-7-80-7 80-80 7 80 7zm233 513 7-80 81-7-81-7-7-80-7 80-80 7 80 7zm-2463 1203 6.2-72 72-6.2-72-6.2-6.2-72-6.2 72-72 6.2 72 6.2zm-609-470 3.3-38 38-3.3-38-3.3-3.3-38-3.3 38-38 3.3 38 3.3zm1387 494 8-92 92-8-92-8-8-92-8 92-92 8 92 8zm-2079-346 11-123 123-11-123-11-11-123-11 123-123 11 123 11zm-713-822 4-46 47-4-47-4-4-46-4 46-46 4 46 4zm4e3 -1474 6.5-74 74-6.5-74-6.4-6.5-74-6.4 74-74 6.4 74 6.5zm773 803 14-157 157-14-157-14-14-157-14 157-157 14 157 14zm-4902-1185 11-123 123-11-123-11-11-123-11 123-123 11 123 11zm327 432 4-46 47-4-47-4-4-46-4 46-47 4 47 4 4 46" fill="#c887ca"/>
			</g>
		</g>
	</g>
</svg>
